<?xml version="1.0" encoding="UTF-8"?>
<svg version="1.1" xmlns="http://www.w3.org/2000/svg" width="1920" height="1080">
<path d="M0 0 C12.77598752 11.85475882 20.48470874 29.98355432 22.08984375 47.171875 C22.31700228 54.109675 21.31033859 58.85427914 17.05859375 64.47265625 C13.44592275 67.1821595 10.07795748 68.27693311 5.53125 68.04296875 C1.31540753 67.35552688 -0.85794443 66.45104848 -4.12890625 63.59765625 C-6.81371613 59.79111074 -7.48640827 55.68923419 -8.19140625 51.16015625 C-9.86661186 40.45136528 -12.2551453 30.07808866 -20.19140625 22.16015625 C-29.28979657 15.69702909 -41.53834282 14.88578486 -52.26025391 16.46484375 C-67.95672081 19.23460068 -82.64556404 24.99273477 -97.3125 31.05859375 C-100.19140625 32.16015625 -100.19140625 32.16015625 -102.19140625 32.16015625 C-102.30387695 33.38420166 -102.41634766 34.60824707 -102.53222656 35.86938477 C-103.20933826 41.93245786 -104.47491551 47.8487387 -105.73828125 53.8125 C-105.99136047 55.02547256 -106.2444397 56.23844513 -106.50518799 57.48817444 C-107.31331076 61.35884075 -108.12696099 65.22831579 -108.94140625 69.09765625 C-116.75127172 105.26027624 -116.75127172 105.26027624 -122.50390625 141.78515625 C-122.67307458 143.11207545 -122.84299994 144.43889836 -123.01367188 145.765625 C-123.41357442 148.89629061 -123.80629339 152.02764369 -124.19140625 155.16015625 C-123.51553467 154.90693604 -122.83966309 154.65371582 -122.14331055 154.39282227 C-89.02726992 142.14410895 -44.63951861 131.63616421 -10.5234375 145.22265625 C-0.78031967 150.05229125 7.13234863 159.02038343 10.92578125 169.140625 C14.55082651 180.63757512 18.63259966 196.54596191 13.80859375 208.16015625 C11.84398628 211.66260253 9.61241407 213.74931476 5.99609375 215.59765625 C1.1044517 216.4608872 -2.92564596 216.56129177 -7.1875 213.92578125 C-10.80299801 211.00932963 -12.8202962 208.67902599 -14.19140625 204.16015625 C-14.40757376 201.79052253 -14.54698969 199.41321891 -14.62890625 197.03515625 C-15.02284078 189.21589139 -15.96610796 181.92014301 -20.00390625 175.09765625 C-28.07782151 167.94647416 -43.17113334 169.97023022 -53.17431641 170.47729492 C-54.43808105 170.55826416 -55.7018457 170.6392334 -57.00390625 170.72265625 C-57.66960632 170.7651651 -58.3353064 170.80767395 -59.0211792 170.85147095 C-79.89479945 172.25385627 -99.61946425 177.99084784 -119.19140625 185.16015625 C-120.36968994 185.58820557 -120.36968994 185.58820557 -121.57177734 186.02490234 C-132.61055857 190.09133889 -143.14919683 195.03070441 -153.69140625 200.22265625 C-164.92618267 205.75466939 -176.1657652 210.58567428 -188.19140625 214.16015625 C-189.34640625 214.50433594 -190.50140625 214.84851563 -191.69140625 215.203125 C-208.99887465 219.90528159 -227.09734583 218.60506489 -242.92578125 209.60546875 C-245.07989148 208.19051399 -247.1457543 206.72649226 -249.19140625 205.16015625 C-249.93132813 204.64710938 -250.67125 204.1340625 -251.43359375 203.60546875 C-252.01367188 203.12851562 -252.59375 202.6515625 -253.19140625 202.16015625 C-253.19140625 201.50015625 -253.19140625 200.84015625 -253.19140625 200.16015625 C-254.18140625 199.83015625 -255.17140625 199.50015625 -256.19140625 199.16015625 C-263.56906595 190.64747198 -266.53524242 179.3029951 -266.19140625 168.16015625 C-265.255039 158.76900575 -264.2115382 148.66922596 -258.50390625 140.84765625 C-255.22950515 138.45822842 -252.24501184 137.40293118 -248.19140625 137.16015625 C-243.59868644 137.89600639 -240.30483268 139.65334427 -237.25390625 143.16015625 C-233.43176741 148.71963092 -233.53720627 154.48028137 -234.69140625 160.97265625 C-235.56405667 166.53580265 -236.17429056 172.8740069 -234.54296875 178.328125 C-232.58913066 180.9765356 -230.32813442 181.93304496 -227.37890625 183.34765625 C-226.34121094 183.85683594 -225.30351563 184.36601563 -224.234375 184.890625 C-210.89329369 190.45654468 -197.01351663 186.08867457 -184.19140625 181.16015625 C-169.22906931 175.05057692 -169.22906931 175.05057692 -155.19140625 167.16015625 C-154.65428515 164.99628542 -154.65428515 164.99628542 -154.6015625 162.4453125 C-154.54226563 161.46498047 -154.48296875 160.48464844 -154.421875 159.47460938 C-154.36644531 158.40146484 -154.31101562 157.32832031 -154.25390625 156.22265625 C-151.93178857 122.26168517 -144.22775594 88.97234149 -136.94140625 55.7890625 C-136.69668579 54.66442848 -136.69668579 54.66442848 -136.44702148 53.51707458 C-135.3100624 48.39746856 -135.3100624 48.39746856 -134.19140625 46.16015625 C-137.63043571 47.55224188 -141.0675967 48.9488703 -144.50390625 50.34765625 C-145.52194336 50.76184814 -146.53998047 51.17604004 -147.58886719 51.6027832 C-152.4279647 53.58181418 -157.22703747 55.58356761 -161.94140625 57.84765625 C-166.60312011 60.01659582 -171.3884112 61.70244233 -176.25390625 63.34765625 C-176.98641602 63.59797607 -177.71892578 63.8482959 -178.47363281 64.10620117 C-198.81628856 70.81075234 -221.46905259 70.49362017 -240.94140625 61.16015625 C-252.22932511 55.22593605 -257.29125383 47.39405941 -261.21875 35.47265625 C-263.99004054 26.03468685 -264.60797539 14.59862347 -260.44140625 5.47265625 C-258.06033184 1.50702342 -255.62967027 -0.16254819 -251.15234375 -1.40625 C-245.68396617 -2.44918799 -242.51348375 -1.50179633 -237.91796875 1.54296875 C-234.25816296 4.97093164 -233.03833118 7.89764986 -232.78515625 12.84765625 C-232.71742364 15.5171181 -232.69115096 18.18532029 -232.6640625 20.85546875 C-232.49972825 27.49336271 -232.49972825 27.49336271 -229.19140625 33.16015625 C-217.60208448 39.54610906 -203.00626408 39.77907582 -190.5 36.25 C-178.14931852 32.18171177 -166.23152178 26.94107495 -154.27832031 21.84838867 C-139.84305969 15.71000128 -125.32082917 9.78267945 -110.79545593 3.86138916 C-106.4941105 2.10654224 -102.20126235 0.33376243 -97.91796875 -1.46484375 C-87.21203382 -5.92782638 -76.50702855 -9.28055327 -65.19140625 -11.83984375 C-64.16273438 -12.08605469 -63.1340625 -12.33226562 -62.07421875 -12.5859375 C-40.57867603 -17.00074443 -17.11656573 -14.37059262 0 0 Z " fill="#FFFFFF" transform="translate(911.19140625,532.83984375)"/>
<path d="M0 0 C1.92585938 -0.04253906 1.92585938 -0.04253906 3.890625 -0.0859375 C16.34297455 -0.11145461 23.60558554 3.79931025 32.5078125 12.2578125 C42.25139984 22.00139984 49.1504322 33.12476385 52.75 46.5 C53.08644531 47.61761719 53.08644531 47.61761719 53.4296875 48.7578125 C55.85615735 57.76566634 56.21132503 68.77144123 52.75 77.5 C48.00810258 85.31563549 39.97544875 90.01585795 31.75 93.5 C26.2600737 94.61983571 22.33931144 94.28020743 17.3125 91.8125 C12.4325591 87.4086509 10.0882927 84.38917944 9.66015625 77.76953125 C9.83786273 73.28051096 11.26879434 69.98462646 14.44140625 66.8046875 C16.1711763 65.30964616 17.94628448 63.90385569 19.75 62.5 C20.74 61.51 20.74 61.51 21.75 60.5 C20.57031169 51.73660114 16.05633585 42.03057508 10.04296875 35.609375 C5.88796226 32.94780501 3.13656527 32.76441612 -1.6875 32.9375 C-2.47809814 32.95409668 -3.26869629 32.97069336 -4.08325195 32.98779297 C-23.41359273 33.73671513 -41.32867214 43.42730541 -58.62011719 51.2734375 C-64.75676098 54.03874817 -70.82271181 56.51224158 -77.25 58.5 C-81.41510306 59.82230487 -85.55382754 61.20774087 -89.6875 62.625 C-90.77482422 62.9653125 -91.86214844 63.305625 -92.98242188 63.65625 C-98.7129445 65.45580091 -98.7129445 65.45580091 -102.41455078 69.81152344 C-102.92331466 72.08426917 -103.20988433 74.17455484 -103.25 76.5 C-102.63640625 76.63422363 -102.0228125 76.76844727 -101.390625 76.90673828 C-97.7386572 77.70560624 -94.13394009 78.53295076 -90.53515625 79.5546875 C-86.71431989 80.51817164 -83.12401674 80.68950608 -79.19628906 80.72509766 C-66.30106724 80.85309616 -54.3329386 83.30219946 -44.765625 92.703125 C-38.38462022 100.26823376 -37.07970148 108.68802587 -37.88574219 118.37402344 C-39.98891533 130.64911173 -49.60904353 143.47472084 -59.36328125 150.7265625 C-65.66645895 154.59888006 -72.49400119 157.51370891 -79.25 160.5 C-75.69083056 162.6051729 -72.24125418 163.09603345 -68.1875 163.75 C-59.43843804 165.36404925 -51.54265934 168.2026834 -45.75 175.3125 C-40.632214 183.13709188 -39.11186756 191.21789766 -40.25 200.5 C-41.93574776 205.99227495 -44.96834784 209.70489922 -49.25 213.5 C-49.84941406 214.03238281 -50.44882812 214.56476563 -51.06640625 215.11328125 C-52.41971557 216.30768928 -53.77932335 217.49499167 -55.14453125 218.67578125 C-56.52520445 219.87202315 -57.89794849 221.07749196 -59.26171875 222.29296875 C-71.82877202 233.47739927 -88.44509453 245.97433358 -106.00390625 245.71484375 C-110.69723413 245.26591674 -113.46637739 243.36833856 -116.5625 239.9375 C-119.85184501 235.18622387 -119.72189835 231.17151911 -119.25 225.5 C-117.555083 220.50941105 -114.70810675 217.25215047 -110.25 214.5 C-107.8727371 213.46603895 -105.46309592 212.56443859 -103.03515625 211.65625 C-94.81389191 208.2432146 -87.85149533 203.38394149 -81.25 197.5 C-80.59 197.5 -79.93 197.5 -79.25 197.5 C-79.58 196.84 -79.91 196.18 -80.25 195.5 C-82.33934654 194.86276139 -82.33934654 194.86276139 -84.88671875 194.45703125 C-86.33195923 194.18282349 -86.33195923 194.18282349 -87.80639648 193.90307617 C-89.35629272 193.61074097 -89.35629272 193.61074097 -90.9375 193.3125 C-103.96567126 190.65104651 -117.11705062 186.89893692 -125.25 175.5 C-128.81720036 168.99868604 -128.98783543 161.75364973 -128.25 154.5 C-125.73313967 146.6533178 -119.65541049 142.0467103 -112.59985352 138.36254883 C-106.53964271 135.33209113 -100.45960776 132.75837399 -94.05078125 130.55078125 C-90.55646456 129.2398033 -87.17829318 127.73126275 -83.8125 126.125 C-82.65878906 125.58101563 -81.50507812 125.03703125 -80.31640625 124.4765625 C-75.94662614 121.65986348 -73.87874735 118.38624205 -72.25 113.5 C-73.45011719 113.56960938 -74.65023437 113.63921875 -75.88671875 113.7109375 C-93.43773241 114.40486444 -110.09766003 110.61624388 -125.25 101.5 C-125.95382812 101.07847656 -126.65765625 100.65695312 -127.3828125 100.22265625 C-131.94055359 97.23819399 -135.5418677 93.81862004 -136.7109375 88.33984375 C-136.96392757 86.40139283 -137.11549946 84.45025781 -137.25 82.5 C-137.93578125 82.8609375 -138.6215625 83.221875 -139.328125 83.59375 C-147.99065184 87.43427914 -155.92754919 87.96732621 -165.375 87.9375 C-166.55352539 87.93492187 -167.73205078 87.93234375 -168.94628906 87.9296875 C-180.169115 87.74175293 -190.30275116 86.52208851 -200.5 81.6875 C-201.60601563 81.1915332 -201.60601563 81.1915332 -202.734375 80.68554688 C-214.05700007 75.49268802 -222.60832914 69.44606574 -227.25 57.5 C-229.20187614 50.34498203 -229.58696286 43.32039046 -229.5625 35.9375 C-229.57861328 34.96103516 -229.59472656 33.98457031 -229.61132812 32.97851562 C-229.61637065 25.43993719 -228.44932111 19.11317039 -224.5 12.625 C-220.6736691 9.01124304 -216.87885839 7.67145878 -211.6875 7.125 C-206.31634858 7.71094379 -202.91534495 9.48674474 -199.4375 13.5625 C-196.31321066 17.75797426 -196.1289313 19.62274945 -196.15234375 24.8203125 C-196.15556641 26.07714844 -196.15878906 27.33398438 -196.16210938 28.62890625 C-196.17467773 30.60697266 -196.17467773 30.60697266 -196.1875 32.625 C-196.19251511 33.96484211 -196.19707799 35.304686 -196.20117188 36.64453125 C-196.21298914 39.92973206 -196.22946383 43.21484397 -196.25 46.5 C-182.61340489 53.54368203 -167.76091122 57.77341538 -152.5 53.43359375 C-149.40184895 52.18685972 -146.3884605 50.85004132 -143.36523438 49.43701172 C-140.11097471 47.99543178 -136.77288732 46.79872987 -133.43310547 45.5715332 C-125.15541846 42.5294133 -117.33892063 39.17504458 -109.51953125 35.09375 C-104.97271639 32.87738146 -100.28659067 31.2509471 -95.50390625 29.62109375 C-92.60462649 28.62218224 -89.77439843 27.53694449 -86.9375 26.375 C-83.86267591 25.11688867 -80.79185969 24.00346832 -77.625 23 C-73.94113104 21.8087313 -70.62777839 20.24985024 -67.19921875 18.46484375 C-64.6889545 17.2222881 -62.11681934 16.28484185 -59.484375 15.3359375 C-56.87294585 14.35893429 -54.31669667 13.27661183 -51.75 12.1875 C-46.97792914 10.19813545 -42.1943339 8.2466485 -37.375 6.375 C-35.55355469 5.65957031 -35.55355469 5.65957031 -33.6953125 4.9296875 C-22.6177535 1.12243849 -11.65561786 -0.02369028 0 0 Z " fill="#FFFFFF" transform="translate(962.25,195.5)"/>
<path d="M0 0 C4.42565649 2.73872428 8.72830436 5.60874097 12.63867188 9.05273438 C12.63867188 9.71273437 12.63867188 10.37273437 12.63867188 11.05273438 C13.29867188 11.05273438 13.95867187 11.05273438 14.63867188 11.05273438 C20.27184368 16.51563399 27.46883623 23.90062326 27.63867188 32.05273438 C26.85432891 37.54313514 24.98401615 40.55663872 20.70117188 43.88476562 C17.18311083 45.87700095 13.64614846 46.54773571 9.63867188 46.05273438 C3.06383748 43.62706732 -0.96638299 38.59493677 -5.61914062 33.58984375 C-11.21659578 27.7553063 -17.06421215 23.63160293 -25.36132812 23.05273438 C-28.89209544 24.22965681 -29.12125993 24.74860513 -30.79882812 27.92773438 C-36.39513182 39.91021046 -37.50073499 53.36251242 -38.73632812 66.36523438 C-42.28824907 103.20331088 -46.67123419 146.71434536 -64.61132812 179.67773438 C-65.00553955 180.40355713 -65.39975098 181.12937988 -65.8059082 181.87719727 C-75.15830735 198.70550495 -89.2617869 209.30184129 -107.73632812 214.74023438 C-118.31264506 217.33698729 -128.73328823 218.41961669 -139.61132812 218.36523438 C-140.78646973 218.36031982 -141.96161133 218.35540527 -143.17236328 218.3503418 C-164.64788111 218.06284173 -183.54186322 213.3247756 -199.04882812 197.55273438 C-212.40552422 181.83476522 -217.06064342 160.18811239 -220.02587891 140.26757812 C-220.38290701 137.9102572 -220.77570498 135.56035579 -221.16992188 133.20898438 C-223.90815691 116.31563151 -224.41330866 99.4779972 -224.34570312 82.38867188 C-224.34290848 81.53931061 -224.34011383 80.68994934 -224.3372345 79.81484985 C-224.32120128 75.59117973 -224.29154343 71.36837114 -224.23706055 67.14501953 C-224.16117591 59.29457204 -224.3277602 51.55058289 -225.17773438 43.74023438 C-225.24758041 43.05292236 -225.31742645 42.36561035 -225.38938904 41.6574707 C-226.09958928 35.92143301 -227.70339758 31.66921666 -231.86132812 27.61523438 C-242.18389334 23.00694633 -256.50005346 29.560746 -266.58789062 33.22460938 C-271.63480736 34.73157606 -276.31226364 33.8268254 -281.17382812 31.99023438 C-284.39551839 29.13673728 -286.24562852 26.22574068 -287.36132812 22.05273438 C-287.30926222 16.91556473 -285.67164462 12.14743952 -282.06445312 8.38476562 C-269.24664794 -1.64016916 -246.16462212 -5.6766827 -230.36132812 -3.94726562 C-216.82677895 -0.59254831 -208.65905026 6.42503044 -201.36132812 18.05273438 C-195.2481311 29.13968638 -194.90083031 40.68677649 -194.36132812 53.05273438 C-193.80832031 53.313125 -193.2553125 53.57351563 -192.68554688 53.84179688 C-190.05694435 55.21132088 -187.64645853 56.79358614 -185.17382812 58.42773438 C-163.02412831 72.57648021 -130.98696405 72.19950467 -105.76367188 67.10351562 C-95.33457917 64.71802418 -84.68152714 62.12043062 -75.2722168 56.91772461 C-73.00420192 55.89107625 -70.80879186 55.46631225 -68.36132812 55.05273438 C-68.17340698 54.02672119 -68.17340698 54.02672119 -67.98168945 52.97998047 C-60.18674992 10.93326353 -60.18674992 10.93326353 -44.47460938 -1.54492188 C-30.70744603 -10.68061807 -13.74092671 -8.11064666 0 0 Z M-194.36132812 88.05273438 C-195.34225935 115.30082391 -194.84925085 154.99274868 -177.73632812 177.86523438 C-169.4244119 186.78739255 -156.89359454 188.45179742 -145.36132812 189.05273438 C-144.44609375 189.106875 -143.53085938 189.16101563 -142.58789062 189.21679688 C-127.84265272 189.67113194 -111.03895133 187.66650482 -99.23632812 178.30273438 C-78.92377387 158.69061302 -73.32475425 115.01979112 -71.36132812 88.05273438 C-72.05468262 88.24907471 -72.74803711 88.44541504 -73.46240234 88.64770508 C-93.1528973 94.18636885 -111.90406941 98.40305777 -132.36132812 99.05273438 C-133.534375 99.10558594 -134.70742187 99.1584375 -135.91601562 99.21289062 C-156.20048424 99.73242601 -175.80073314 96.18629447 -194.36132812 88.05273438 Z " fill="#FFFFFF" transform="translate(1811.361328125,212.947265625)"/>
<path d="M0 0 C9.66806875 8.78088126 16.53233112 22.77258716 17.60302734 35.77929688 C17.64347779 39.06578682 17.68387143 42.35144517 17.68310547 45.63818359 C17.68749018 47.74528203 17.72391445 49.85030052 17.76171875 51.95703125 C17.86906633 64.62996218 17.86906633 64.62996218 13.3125 70.25 C8.97714255 73.81771295 5.0510004 74.86123686 -0.55078125 74.56640625 C-5.3321476 73.85837942 -8.39106273 71.81066319 -11.5 68.25 C-14.28612038 64.4290349 -14.80706545 61.87738148 -14.8984375 57.27734375 C-14.92679688 56.29443359 -14.95515625 55.31152344 -14.984375 54.29882812 C-15.03576756 52.25211955 -15.08023291 50.20522328 -15.1171875 48.15820312 C-15.36194627 40.31062519 -15.96474654 32.53126699 -21.125 26.3125 C-21.970625 25.631875 -22.81625 24.95125 -23.6875 24.25 C-24.57477783 23.45480957 -24.57477783 23.45480957 -25.47998047 22.64355469 C-32.34843195 18.30766428 -43.59643126 21.55724253 -51.02392578 23.1796875 C-52.19165527 23.45039063 -53.35938477 23.72109375 -54.5625 24 C-55.79339355 24.27585938 -57.02428711 24.55171875 -58.29248047 24.8359375 C-61.76227707 25.62158646 -65.22594847 26.42886794 -68.6875 27.25 C-69.90083008 27.53713867 -69.90083008 27.53713867 -71.13867188 27.83007812 C-87.58742374 31.79832006 -103.33507841 37.61810048 -118.78930664 44.44995117 C-120.6875 45.25 -120.6875 45.25 -123.640625 46.19140625 C-125.878923 47.07658583 -125.878923 47.07658583 -126.62109375 49.38671875 C-126.78738281 50.22847656 -126.95367188 51.07023437 -127.125 51.9375 C-128.2936944 56.62578851 -129.93255641 59.2433506 -133.3828125 62.58203125 C-135.05235832 64.71645061 -135.22669457 66.61179483 -135.6875 69.25 C-134.0314978 69.27187378 -134.0314978 69.27187378 -132.34204102 69.29418945 C-128.20989075 69.35256657 -124.07826316 69.42979393 -119.9465332 69.51245117 C-118.16504457 69.54551638 -116.38345582 69.57360442 -114.60180664 69.59643555 C-112.02707614 69.63032307 -109.4532482 69.68265143 -106.87890625 69.73828125 C-106.09415421 69.74467117 -105.30940216 69.7510611 -104.50086975 69.75764465 C-96.76447802 69.95910972 -89.30606278 71.63143722 -83.6875 77.25 C-78.20462188 84.72764292 -73.54508879 95.647921 -74.2890625 105.16015625 C-76.34322474 115.93443856 -83.02141337 125.35950953 -91.82861328 131.82080078 C-96.27411408 134.77157153 -100.87326313 137.42500785 -105.52880859 140.02734375 C-107.72761522 141.27272077 -109.89542054 142.55589365 -112.05078125 143.875 C-112.67895752 144.25914062 -113.30713379 144.64328125 -113.9543457 145.0390625 C-115.74515892 146.29028571 -117.19237494 147.66223626 -118.6875 149.25 C-117.82769531 149.40855469 -116.96789062 149.56710937 -116.08203125 149.73046875 C-91.94312126 154.49507367 -91.94312126 154.49507367 -84.6875 165.25 C-84.18347656 165.848125 -83.67945313 166.44625 -83.16015625 167.0625 C-77.65074737 174.63221414 -78.58524622 185.36307889 -79.6875 194.25 C-81.77904801 202.22925566 -88.45985799 207.27922656 -94.6875 212.25 C-95.34105469 212.78367187 -95.99460937 213.31734375 -96.66796875 213.8671875 C-106.17267219 220.88662916 -118.48020025 224.99196013 -129.65600586 228.56298828 C-131.73254882 229.26523463 -133.73278939 230.08111493 -135.75 230.9375 C-140.46436335 232.69603236 -144.68397998 233.22262665 -149.60546875 231.62890625 C-153.95227818 229.54354992 -156.13669378 226.79184804 -158.03125 222.3984375 C-159.49061126 217.62076672 -159.25133937 213.71598237 -157.4375 209 C-150.83070453 198.61789283 -137.82958048 195.38038457 -126.71875 191.78588867 C-121.79305838 190.1554114 -117.85344399 188.35749568 -113.6875 185.25 C-118.0289513 183.02879236 -121.84790986 181.97488533 -126.6875 181.3125 C-150.36483233 178.00423532 -150.36483233 178.00423532 -158 169.75 C-162.861074 162.54840889 -162.65373923 154.70610617 -161.6875 146.25 C-159.58802081 138.51610458 -154.86403675 134.01039958 -148.6875 129.25 C-147.94628906 128.61449219 -147.20507812 127.97898437 -146.44140625 127.32421875 C-140.74511028 122.50715401 -134.66160983 118.79732769 -128.1640625 115.19921875 C-121.29571243 111.34831236 -114.8125701 107.19587479 -108.6875 102.25 C-109.62956299 102.2406543 -110.57162598 102.23130859 -111.54223633 102.22167969 C-115.08949883 102.17725997 -118.63562599 102.11546964 -122.18237305 102.04248047 C-123.70765422 102.01452314 -125.23307347 101.99318513 -126.75854492 101.97900391 C-139.3539188 101.854993 -151.26601959 100.69847606 -160.6875 91.25 C-160.6875 90.59 -160.6875 89.93 -160.6875 89.25 C-161.3475 89.25 -162.0075 89.25 -162.6875 89.25 C-167.82418843 81.28813293 -168.2928938 74.58651766 -167.6875 65.25 C-169.19376953 66.04664063 -169.19376953 66.04664063 -170.73046875 66.859375 C-190.16565111 76.97992277 -207.30658434 80.39422605 -228.6875 74.25 C-244.01695357 68.68332085 -251.55554142 56.67573567 -258.421875 42.7265625 C-260.43387995 37.0731989 -260.13459598 31.0885515 -260.07861328 25.15869141 C-260.06247659 23.12204587 -260.07854947 21.08736791 -260.09765625 19.05078125 C-260.09378906 17.75269531 -260.08992188 16.45460937 -260.0859375 15.1171875 C-260.08255371 13.94269043 -260.07916992 12.76819336 -260.07568359 11.55810547 C-259.567255 7.22527059 -258.14080114 3.84333276 -255.1875 0.60546875 C-250.22325197 -3.25992229 -246.96950341 -4.17589854 -240.6875 -3.75 C-235.01200447 -1.70682161 -231.38876279 1.84747441 -228.6875 7.25 C-228.60573892 8.78859486 -228.57922745 10.33033058 -228.58203125 11.87109375 C-228.74741009 27.15336287 -228.74741009 27.15336287 -221.6875 40.25 C-217.9515954 42.79432948 -215.19846802 43.82443698 -210.6875 44.25 C-210.02492188 44.36085937 -209.36234375 44.47171875 -208.6796875 44.5859375 C-196.49140073 45.78410806 -184.19025358 36.59079505 -173.8737793 30.97949219 C-169.6500294 28.7003147 -165.40744928 26.78603317 -160.91796875 25.1015625 C-158.76714776 24.28040842 -156.70906843 23.35153492 -154.625 22.375 C-150.4429912 20.48540583 -146.14874545 18.98915084 -141.8125 17.5 C-131.57644111 13.97408076 -121.61721289 9.77903848 -111.72851562 5.37817383 C-108.6469595 4.01786577 -105.75730901 2.89412008 -102.4375 2.3125 C-99.02375114 1.6319615 -95.92173187 0.63576096 -92.6796875 -0.625 C-86.57489068 -2.87963563 -80.40835504 -4.40115462 -74.0625 -5.8125 C-72.92022949 -6.06854004 -71.77795898 -6.32458008 -70.60107422 -6.58837891 C-67.2989276 -7.32037726 -63.99384541 -8.0372455 -60.6875 -8.75 C-59.85283203 -8.9351416 -59.01816406 -9.1202832 -58.15820312 -9.31103516 C-36.95700634 -13.95400467 -17.64736586 -13.90517891 0 0 Z " fill="#FFFFFF" transform="translate(692.6875,208.75)"/>
<path d="M0 0 C3.39012063 3.62664068 5.43317248 6.80490346 5.8515625 11.85546875 C5.60442395 16.76972374 3.74418444 19.66961048 0.52661133 23.26953125 C-2.59463876 25.99425454 -6.05585826 26.84190166 -10 27.875 C-17.63536644 30.13669925 -23.91072213 33.03220431 -30.3125 37.875 C-31.58480469 38.81666016 -31.58480469 38.81666016 -32.8828125 39.77734375 C-44.29482452 49.62983644 -46.63353093 65.23936 -48.11328125 79.41796875 C-48.59204018 82.73086194 -48.59204018 82.73086194 -47.3125 84.875 C-46.78245361 84.50133301 -46.25240723 84.12766602 -45.70629883 83.74267578 C-40.02653563 79.83533407 -34.23775943 76.66993091 -28 73.75 C-27.00564941 73.28263428 -26.01129883 72.81526855 -24.98681641 72.33374023 C-21.76828028 70.83356665 -18.54165609 69.35216203 -15.3125 67.875 C-14.25595215 67.38692871 -13.1994043 66.89885742 -12.11083984 66.39599609 C19.25096264 52.0188681 52.13345242 42.58762947 85.6875 34.875 C86.72729004 34.63281738 87.76708008 34.39063477 88.83837891 34.14111328 C101.7022617 31.18715111 114.53354731 29.80390141 127.6875 28.875 C128.833396 28.78822998 128.833396 28.78822998 130.00244141 28.69970703 C134.56181031 28.35450206 139.11944969 28.08445209 143.6875 27.875 C145.27304688 27.79378906 145.27304688 27.79378906 146.890625 27.7109375 C163.53555583 27.25090172 191.17229154 30.21237601 204 42 C206.26401586 45.85721221 207.43358395 49.39684428 207.6875 53.875 C206.16391187 59.58845549 203.68025946 62.73141071 198.6875 65.875 C191.98694852 67.66430928 186.61496468 66.37560858 180.25 64.0625 C169.10907926 60.15904467 159.2215756 58.52958149 147.375 58.625 C146.14023926 58.63249268 144.90547852 58.63998535 143.63330078 58.64770508 C97.59686747 59.18134849 50.26937622 72.09341511 8.29638672 90.71972656 C5.83236918 91.81084869 3.35846094 92.87444832 0.87890625 93.9296875 C-20.15581382 102.81669482 -20.15581382 102.81669482 -38.81640625 115.6953125 C-40.3125 116.875 -40.3125 116.875 -42.3125 116.875 C-42.4259375 117.55175781 -42.539375 118.22851562 -42.65625 118.92578125 C-43.28565711 121.75436678 -44.15426321 124.41303402 -45.12866211 127.1394043 C-49.25978669 138.75699386 -51.2322002 149.86611528 -46.12109375 161.61328125 C-43.15158951 166.94544282 -39.65647203 170.75684951 -34.8515625 174.5 C-34.34367188 174.95375 -33.83578125 175.4075 -33.3125 175.875 C-33.3125 176.535 -33.3125 177.195 -33.3125 177.875 C-32.74917969 178.13539063 -32.18585937 178.39578125 -31.60546875 178.6640625 C-29.08716426 179.99400184 -26.91644938 181.56000996 -24.625 183.25 C-16.83907556 188.72057665 -9.66275648 191.25133902 -0.328125 193.06640625 C3.82649551 194.18040424 6.73998866 195.69061083 9.4375 199.0625 C11.75628948 204.27977634 12.17986828 208.16619244 10.625 213.5625 C8.1094609 217.86326039 5.45945358 220.93396779 0.5703125 222.59375 C-16.08455702 224.21861532 -33.04034101 215.19391302 -45.5625 205.0625 C-47.15163339 203.67327352 -48.73534458 202.27781001 -50.3125 200.875 C-51.23546875 200.16988281 -52.1584375 199.46476563 -53.109375 198.73828125 C-53.83640625 198.12339844 -54.5634375 197.50851562 -55.3125 196.875 C-55.3125 196.215 -55.3125 195.555 -55.3125 194.875 C-55.90289063 194.606875 -56.49328125 194.33875 -57.1015625 194.0625 C-67.8800756 188.27333395 -73.51693742 174.84632428 -77.3125 163.875 C-82.02801852 147.11414143 -78.62519092 131.54722195 -73.171875 115.5234375 C-71.11215747 109.17576257 -72.57711123 104.85243788 -75.2890625 99.1015625 C-82.82452837 82.70761004 -77.40331706 60.96352639 -71.55078125 44.76171875 C-62.35867737 23.33280781 -46.77659394 9.51714767 -25.3125 0.875 C-16.4946649 -2.44400058 -8.44194104 -5.41558482 0 0 Z " fill="#FFFFFF" transform="translate(1023.3125,529.125)"/>
<path d="M0 0 C2.44031355 0.00850707 4.8782757 -0.02033487 7.31835938 -0.05200195 C19.69676196 -0.10855303 30.23367876 2.12001939 41.32617188 7.82104492 C41.96256592 8.1477417 42.59895996 8.47443848 43.25463867 8.81103516 C49.86629346 12.25106445 56.37699157 15.8840104 62.88867188 19.50854492 C63.92604492 20.08588379 64.96341797 20.66322266 66.03222656 21.25805664 C71.08541034 24.10037184 76.03414817 27.02927033 80.89648438 30.18823242 C87.29235518 34.30465963 93.9453246 36.88560614 101.07617188 39.44604492 C101.78193359 39.70272949 102.48769531 39.95941406 103.21484375 40.22387695 C118.52913593 45.73961778 133.96834075 49.17385087 150.07617188 51.44604492 C150.96852539 51.61281738 151.86087891 51.77958984 152.78027344 51.95141602 C158.58266642 52.82220477 164.42947988 52.78899621 170.28613281 52.85107422 C171.79873674 52.87252159 173.31122112 52.9064653 174.82324219 52.95361328 C188.26307581 53.36716927 198.09102263 50.83561446 209.32617188 43.00854492 C217.05733812 35.6369678 220.31210115 24.20479164 224.07617188 14.44604492 C224.73617188 14.44604492 225.39617187 14.44604492 226.07617188 14.44604492 C226.07617188 13.78604492 226.07617188 13.12604492 226.07617188 12.44604492 C231.12896932 9.33663111 235.29261554 8.67767299 241.07617188 9.44604492 C245.26658713 11.0273337 248.27184359 12.94063456 251.07617188 16.44604492 C253.79281713 22.55849674 253.78125737 27.99078114 251.50195312 34.22338867 C250.8100559 35.94851908 250.10529507 37.66853825 249.38867188 39.38354492 C248.87916992 40.66648437 248.87916992 40.66648437 248.359375 41.9753418 C240.17192654 62.03841643 225.03701302 73.84453179 205.44335938 82.11401367 C204.3321875 82.55358398 203.22101563 82.9931543 202.07617188 83.44604492 C200.77921387 83.97077393 200.77921387 83.97077393 199.45605469 84.50610352 C195.12098714 85.71168067 191.11030485 85.78820452 186.63085938 85.81713867 C185.71581635 85.82816116 184.80077332 85.83918365 183.85800171 85.85054016 C180.8888951 85.87742317 177.92039497 85.88366422 174.95117188 85.88354492 C173.43469055 85.88614319 173.43469055 85.88614319 171.88757324 85.88879395 C156.04855384 85.87685893 141.24720458 84.75075525 125.79443359 81.08666992 C123.36520436 80.51416251 120.93686917 80.01061268 118.48632812 79.53979492 C96.62194313 75.16947068 75.15660724 66.28486483 56.57226562 54.02416992 C53.42493494 52.03430827 50.15771108 50.43921882 46.80664062 48.82495117 C43.4924703 47.15127145 40.28694911 45.30736506 37.07617188 43.44604492 C24.69151131 36.30027642 16.48511191 33.25921032 2.13867188 33.19604492 C0.97142578 33.17541992 -0.19582031 33.15479492 -1.3984375 33.13354492 C-7.35214793 33.1064055 -11.78158487 33.09130303 -16.92382812 36.44604492 C-17.91382813 36.77604492 -18.90382812 37.10604492 -19.92382812 37.44604492 C-21.04468124 39.78912582 -21.04468124 39.78912582 -21.92382812 42.44604492 C-22.25382812 43.07639648 -22.58382812 43.70674805 -22.92382812 44.35620117 C-23.93220857 46.46355873 -24.41833032 48.28433242 -24.86132812 50.57104492 C-25.52237398 53.81331746 -26.38984278 56.82691671 -27.48632812 59.94604492 C-29.00378824 64.70773012 -29.15552972 69.18603478 -29.29882812 74.13354492 C-29.53779702 80.73452399 -29.96506907 84.8178698 -34.92382812 89.44604492 C-39.00494385 92.32137645 -42.71108587 93.04221102 -47.61132812 92.86010742 C-52.82677031 91.92626136 -56.59692572 89.31646113 -59.63085938 85.03979492 C-61.54339424 79.72398805 -61.31796346 74.67449433 -61.23632812 69.07104492 C-61.23955078 67.97276367 -61.24277344 66.87448242 -61.24609375 65.74291992 C-61.20556055 59.59661255 -60.68723828 54.32818927 -58.92382812 48.44604492 C-58.57274376 47.08755126 -58.22517345 45.7281453 -57.88085938 44.36791992 C-53.21438907 27.00239552 -45.28240999 14.93882729 -30.08789062 4.95385742 C-20.27857235 0.2792934 -10.66149658 -0.05655117 0 0 Z " fill="#FFFFFF" transform="translate(164.923828125,276.553955078125)"/>
<path d="M0 0 C4.08692059 3.13040726 6.02739697 5.94246422 7 11 C6.90349978 17.71725469 5.00409354 23.35183487 2.3125 29.4375 C1.76903931 30.68853516 1.76903931 30.68853516 1.21459961 31.96484375 C-5.55700089 47.28209339 -16.45578904 64.52776635 -32.1171875 72.01171875 C-49.21401844 78.62464393 -66.14707231 72.57561353 -83 68 C-83.31638428 68.4626123 -83.63276855 68.92522461 -83.95874023 69.40185547 C-90.15037287 78.41662174 -96.25118836 87.23648473 -104 95 C-104.60714844 95.61875 -105.21429687 96.2375 -105.83984375 96.875 C-116.33491446 106.81536296 -129.84460736 113.2990589 -144.3972168 113.12890625 C-149.54518699 112.87394628 -154.6421293 112.16781348 -159.75 111.5 C-161.95277459 111.21601861 -164.1558904 110.93466863 -166.359375 110.65625 C-167.32327148 110.53056641 -168.28716797 110.40488281 -169.28027344 110.27539062 C-173.13752888 109.88273409 -173.13752888 109.88273409 -177 110 C-178.83744739 112.11123922 -180.26164049 114.03790408 -181.75 116.375 C-182.62570175 117.6684272 -183.50596786 118.95877514 -184.390625 120.24609375 C-184.82826172 120.88530762 -185.26589844 121.52452148 -185.71679688 122.18310547 C-194.32999697 134.37858399 -205.80337464 142.70984505 -220.2734375 146.61328125 C-233.60092078 148.50356899 -246.25605082 146.95076143 -259 143 C-260.12535156 142.71125 -261.25070312 142.4225 -262.41015625 142.125 C-269.5045595 140.15579761 -274.27838485 137.53668303 -278 131 C-279.71777628 126.56813719 -279.33920778 123.08699652 -277.5 118.75 C-275.22477815 114.79173733 -272.44966114 112.21645412 -268 111 C-262.0430445 110.60661615 -257.47119976 111.48044748 -251.875 113.4375 C-240.92993503 117.15882209 -231.34170595 118.81549421 -220.421875 114.36328125 C-213.97021699 110.73162214 -210.29743822 106.01801412 -206.3125 99.9375 C-205.37171566 98.52953217 -204.43032752 97.12196756 -203.48828125 95.71484375 C-203.05467285 95.06628418 -202.62106445 94.41772461 -202.17431641 93.74951172 C-199.43703855 89.67147988 -199.43703855 89.67147988 -198 88 C-197.34 88 -196.68 88 -196 88 C-196 87.34 -196 86.68 -196 86 C-184.31475029 78.84576549 -172.6769928 79.06722733 -159.4375 81 C-148.51574573 82.55209883 -139.42153238 83.7409595 -129.59765625 77.99609375 C-122.84080335 72.80398573 -118.09757493 66.63974287 -113.4375 59.5625 C-100.1074195 39.55939716 -100.1074195 39.55939716 -93.10009766 37.41992188 C-83.34552025 35.46945999 -74.6694081 38.57204224 -65.453125 41.51171875 C-58.26736027 43.6851908 -49.11136154 46.40263344 -41.91674805 43.02075195 C-32.26835729 36.12988332 -26.83971254 22.13998033 -22.82641602 11.4855957 C-20.55347518 5.62257397 -18.01679522 1.57696114 -12.25 -1.4375 C-7.77978465 -2.21119112 -4.21851672 -1.64226389 0 0 Z " fill="#FFFFFF" transform="translate(1515,276)"/>
<path d="M0 0 C4.52680921 3.63644301 6.18963876 7.49190508 6.82421875 13.203125 C6.38044962 17.49289328 5.29479691 20.61103381 2.44921875 23.828125 C-3.02080556 27.62556399 -8.75279982 28.57682552 -15.23828125 29.265625 C-63.13855899 35.34033133 -112.75482152 54.09279155 -156.34033203 74.36376953 C-161.29608021 76.62419368 -166.33006832 78.68516589 -171.36328125 80.765625 C-181.67710006 85.07608159 -191.8192703 89.68170544 -201.92578125 94.453125 C-203.30712791 95.10425016 -204.68847556 95.75537322 -206.06982422 96.40649414 C-210.88516269 98.67793809 -215.69903817 100.95247799 -220.51220703 103.22851562 C-230.36501352 107.86384225 -240.31448527 111.98207165 -250.55078125 115.703125 C-252.07336548 116.25782471 -252.07336548 116.25782471 -253.62670898 116.82373047 C-274.37886134 124.18274599 -274.37886134 124.18274599 -282.55078125 121.828125 C-286.21012832 119.79193386 -288.79212627 117.54836737 -290.5 113.67578125 C-291.857278 108.6184078 -291.8260451 104.65168435 -289.55078125 99.828125 C-285.58567892 94.32984977 -280.33048852 93.00939518 -273.97412109 91.48510742 C-253.14385041 86.40267997 -233.77054339 76.04488145 -214.51559448 66.85699463 C-204.14019414 61.91168631 -193.68925824 57.2028672 -183.11328125 52.703125 C-182.37354065 52.38752625 -181.63380005 52.07192749 -180.87164307 51.74676514 C-175.43640359 49.4285596 -169.99540855 47.12418853 -164.55078125 44.828125 C-163.4257016 44.35354858 -163.4257016 44.35354858 -162.27789307 43.86938477 C-143.55627243 35.98134465 -124.79754973 28.35970835 -105.55078125 21.828125 C-104.52049805 21.47476074 -103.49021484 21.12139648 -102.42871094 20.75732422 C-87.22928509 15.58023734 -71.8565457 11.14918828 -56.36328125 6.953125 C-55.07224487 6.6003952 -55.07224487 6.6003952 -53.75512695 6.24053955 C-11.46863321 -5.26889734 -11.46863321 -5.26889734 0 0 Z " fill="#FFFFFF" transform="translate(1493.55078125,227.171875)"/>
<path d="M0 0 C7.07249799 5.73445783 7.07249799 5.73445783 7.60357666 10.47106934 C7.56414209 17.46846655 6.78160857 23.809074 5.109375 30.59375 C4.87583313 31.58874008 4.64229126 32.58373016 4.40167236 33.60887146 C3.6340909 36.86725887 2.84819348 40.12093728 2.0625 43.375 C1.51420082 45.69049981 0.96735304 48.00634374 0.421875 50.32250977 C-0.71111336 55.12799649 -1.85029287 59.93195023 -2.99414062 64.73486328 C-5.35905688 74.68275929 -7.65635126 84.64613214 -9.95013428 94.61062622 C-10.69209534 97.83245442 -11.43594969 101.05384081 -12.18017578 104.27514648 C-15.51065339 118.70131609 -18.79321515 133.13796962 -22.05395508 147.58004761 C-23.53919418 154.15397543 -25.0299248 160.72666094 -26.52044678 167.2993927 C-27.7262679 172.61966694 -28.92769435 177.94086575 -30.12011719 183.26416016 C-31.25265753 188.31976443 -32.39581941 193.37285228 -33.54681396 198.42428589 C-33.96843278 200.28381484 -34.38606445 202.14425307 -34.79937744 204.00564575 C-35.36612294 206.55576667 -35.94696541 209.10228688 -36.53125 211.6484375 C-36.69120453 212.3844368 -36.85115906 213.1204361 -37.01596069 213.8787384 C-38.28861957 219.32212389 -40.12843502 224.8080629 -44.6171875 228.43359375 C-48.77133021 230.31046546 -52.06567867 231.7415915 -56.6875 230.875 C-61.29972418 228.88195475 -64.10474812 226.8583938 -66.6875 222.5 C-68.40764971 216.26445729 -67.66588344 210.91701991 -66.17578125 204.69921875 C-66.01160706 204.0022438 -65.84743286 203.30526886 -65.67828369 202.58717346 C-65.31720847 201.05697314 -64.95271547 199.52757624 -64.5852356 197.99890137 C-63.54508346 193.66863148 -62.53217719 189.33195296 -61.515625 184.99609375 C-61.29262222 184.04771637 -61.06961945 183.09933899 -60.83985901 182.1222229 C-58.16780898 170.72450892 -55.63069606 159.29674142 -53.08477783 147.87033081 C-48.05307207 125.29497974 -42.90961236 102.74936714 -37.63641357 80.22935486 C-35.91130275 72.85309629 -34.20750437 65.47199676 -32.5078125 58.08984375 C-32.23681229 56.9131311 -31.96581207 55.73641846 -31.68659973 54.52404785 C-30.61328481 49.8625203 -29.5402574 45.20092801 -28.46920776 40.53887939 C-20.12428698 4.21826385 -20.12428698 4.21826385 -13.9375 0 C-9.0443617 -1.69377864 -4.91869305 -2.05898779 0 0 Z " fill="#FFFFFF" transform="translate(1114.6875,209.125)"/>
<path d="M0 0 C3.97608768 5.39458382 3.61635597 11.39014986 3.1328125 17.7109375 C3.02023821 19.5050903 2.90966587 21.2993695 2.80078125 23.09375 C2.74067871 24.04668945 2.68057617 24.99962891 2.61865234 25.98144531 C2.31621782 31.17991144 2.1323658 36.38224531 1.9453125 41.5859375 C1.88162476 43.28508301 1.88162476 43.28508301 1.81665039 45.01855469 C1.58931945 51.25661875 1.40334443 57.49367338 1.265625 63.734375 C0.89145141 80.21495847 0.12626079 96.63796389 -0.9921875 113.0859375 C-1.05372009 114.02244141 -1.11525269 114.95894531 -1.1786499 115.92382812 C-1.35686718 118.60612512 -1.54569445 121.28745042 -1.73828125 123.96875 C-1.79041275 124.76008331 -1.84254425 125.55141663 -1.89625549 126.36672974 C-2.50453972 134.43055974 -3.50649905 141.1876667 -9.5546875 146.9609375 C-14.32587421 149.39954404 -18.47875164 149.20102121 -23.5546875 147.9609375 C-28.04260111 146.22697088 -29.67993106 143.56028355 -31.85546875 139.484375 C-33.87973756 132.17891328 -32.26329202 123.6277646 -31.6171875 116.171875 C-30.55978394 103.20862082 -30.04500274 90.2603052 -29.66384888 77.26187134 C-29.47637344 70.94876579 -29.26330438 64.63652324 -29.05078125 58.32421875 C-29.00924423 57.08663315 -28.96770721 55.84904755 -28.9249115 54.57395935 C-28.59016421 44.72840508 -28.22805684 34.88512958 -27.73022461 25.04632568 C-27.65584917 23.55082514 -27.58606081 22.05508821 -27.52124023 20.55914307 C-26.83164891 4.85833694 -26.83164891 4.85833694 -22.08984375 -0.78125 C-14.42313009 -6.67872205 -7.31087486 -6.15473651 0 0 Z " fill="#FFFFFF" transform="translate(1300.5546875,528.0390625)"/>
<path d="M0 0 C2.94456863 2.06463194 4.71806608 3.68981178 5.49194336 7.28613281 C5.71601171 9.97088367 5.79536572 12.61861013 5.8125 15.3125 C5.83763672 16.24384766 5.86277344 17.17519531 5.88867188 18.13476562 C5.94735998 20.42360186 5.98377168 22.71053426 6 25 C6.76183594 24.76023437 7.52367187 24.52046875 8.30859375 24.2734375 C15.02087392 22.34606616 20.45337795 21.06095773 27 24 C34.02756154 28.10296017 37.23287877 34.73545134 39.75 42.234375 C42.75291089 54.32943276 43.32356007 74.58470614 37.54296875 85.8359375 C35.81754853 88.25589397 34.81126969 89.09047157 32 90 C28.42522651 90.54996515 27.28640855 90.19527855 24.25 88.125 C22 86 22 86 21 84 C21.09209474 81.42431819 21.24283024 78.88062178 21.4375 76.3125 C22.80576442 58.88062609 22.80576442 58.88062609 19 42 C14.51038516 42.33672111 10.49006243 43.35665507 6.70703125 45.7902832 C2.66850929 51.01806671 4.09634104 59.6643336 4.25 66 C4.28902492 68.4831409 4.3163303 70.96503619 4.32073975 73.44848633 C4.32555615 74.99021169 4.35114777 76.53205372 4.40045166 78.07299805 C4.43262557 81.78563332 4.12903576 83.79896783 2.10229492 86.95654297 C-0.64957409 89.63139416 -2.31467095 90.00692102 -6.03125 90.27734375 C-9.46854591 89.79312151 -10.97656231 87.63660062 -13 85 C-14.2657799 82.4684402 -14.12943549 80.73050003 -14.1328125 77.89453125 C-14.13506836 76.78779053 -14.13732422 75.6810498 -14.13964844 74.54077148 C-14.13481445 73.31044189 -14.12998047 72.0801123 -14.125 70.8125 C-14.12016602 69.52996338 -14.11533203 68.24742676 -14.11035156 66.92602539 C-14.09099142 63.16473261 -14.05790547 59.40363112 -14.02282715 55.64245605 C-13.99810132 52.78021059 -13.97991159 49.91795941 -13.96191406 47.05566406 C-13.92569462 41.74584749 -13.86506496 36.43669875 -13.79046631 31.12728882 C-13.76352584 29.00368506 -13.74320306 26.87998687 -13.72955322 24.7562561 C-13.70828052 21.74186737 -13.66178637 18.72883114 -13.609375 15.71484375 C-13.60813629 14.80767609 -13.60689758 13.90050842 -13.60562134 12.96585083 C-13.5082833 8.79374458 -13.35180612 6.5598997 -11.08691406 2.95532227 C-7.48610428 -0.41843599 -4.88940234 -0.49722736 0 0 Z " fill="#FFFFFF" transform="translate(630,866)"/>
<path d="M0 0 C2.22189824 2.22189824 2.92598892 4.08482708 4 7 C4.58007812 6.65066406 5.16015625 6.30132813 5.7578125 5.94140625 C15.47165849 0.28301082 15.47165849 0.28301082 21.19140625 1.4453125 C26.39327089 2.93645656 29.34549762 4.90252763 33 9 C36.4325072 9 38.87580356 6.43194792 41.61328125 4.5078125 C47.00664168 1.10055043 51.72207361 0.18959642 58 1 C64.25289735 3.22560753 66.70453574 6.73743206 69.6484375 12.59375 C74.0912513 23.79066802 76.09015329 36.18567613 76.25 48.1875 C76.27578125 49.35667969 76.3015625 50.52585937 76.328125 51.73046875 C75.9407318 55.59056523 74.76169673 58.23830327 72 61 C66.61702128 61.46808511 66.61702128 61.46808511 64.1875 59.625 C61.3844807 55.78928937 61.77867638 51.89081254 61.625 47.3125 C61.13451363 36.01632043 59.71485571 25.37795056 55 15 C48.57868559 15.60199823 43.67876415 19.11139033 39.5 23.8125 C36.99981725 28.78011201 37.77089891 34.68795676 37.9140625 40.10546875 C38.03791845 45.71839518 37.79432947 50.71046212 35.9375 56.0625 C33.33104052 58.66895948 31.51120531 58.59637869 27.9375 58.6640625 C26 58 26 58 24.29296875 55.88671875 C22.77762961 52.50352955 22.49289223 49.88754506 22.3125 46.1875 C22.24675781 44.87265625 22.18101562 43.5578125 22.11328125 42.203125 C21.93223068 36.65438077 21.97307028 31.10882585 22.0625 25.55859375 C22.00449969 22.25620109 21.63800287 19.23487391 21 16 C17.14354879 15.77963136 14.50776784 16.39644899 11 18 C11 18.66 11 19.32 11 20 C10.34 20 9.68 20 9 20 C4.79287031 28.37652727 2.21053678 35.19785405 1.8671875 44.66015625 C1.83713623 45.32128418 1.80708496 45.98241211 1.77612305 46.66357422 C1.69079503 48.61224989 1.63197252 50.56203102 1.57421875 52.51171875 C0.91757304 56.50072978 -0.12164913 58.2055355 -3 61 C-6 61.625 -6 61.625 -9 61 C-11.19921875 59.1953125 -11.19921875 59.1953125 -13 56 C-13.38809749 52.05840946 -13.0904168 48.19370297 -12.8125 44.25 C-12.68007435 41.91802054 -12.54858969 39.58598749 -12.41796875 37.25390625 C-12.34497559 36.05910645 -12.27198242 34.86430664 -12.19677734 33.63330078 C-12.00300386 30.05546329 -11.8868589 26.48426867 -11.80078125 22.90234375 C-11.75570435 21.21093262 -11.75570435 21.21093262 -11.7097168 19.48535156 C-11.65428114 17.32735489 -11.60723396 15.16912235 -11.56958008 13.01074219 C-11.28267012 3.85673312 -11.28267012 3.85673312 -8 0 C-5.09288879 -1.4535556 -3.10402897 -0.71133997 0 0 Z " fill="#FFFFFF" transform="translate(973,890)"/>
<path d="M0 0 C6.22269989 4.98523116 10.50142708 11.24502817 12.9375 18.83984375 C12.85762145 22.27462145 12.02024605 23.86427969 9.875 26.52734375 C6.55044155 28.65596376 3.58454108 28.87101349 -0.3125 29.08984375 C-2.05080078 29.20199219 -2.05080078 29.20199219 -3.82421875 29.31640625 C-5.45810547 29.42082031 -5.45810547 29.42082031 -7.125 29.52734375 C-14.5063835 30.17757982 -21.8101849 31.36285232 -29.125 32.52734375 C-26.2454024 37.10482884 -26.2454024 37.10482884 -22.125 40.52734375 C-15.1658347 41.40579576 -8.46730262 40.56607336 -2.125 37.52734375 C-1.465 36.86734375 -0.805 36.20734375 -0.125 35.52734375 C3.73006762 35.0990029 6.00300365 34.96837173 9.3125 37.08984375 C11.50521887 40.51048518 11.50507693 42.53685654 10.875 46.52734375 C6.55750593 52.32897641 -0.07462216 55.47028569 -7.125 56.52734375 C-26.09064402 57.87242489 -26.09064402 57.87242489 -34.125 51.52734375 C-40.06487139 46.28677636 -45.16882027 41.25858145 -46.00390625 33.11328125 C-46.04386719 32.25992188 -46.08382812 31.4065625 -46.125 30.52734375 C-46.23714844 29.59148438 -46.34929688 28.655625 -46.46484375 27.69140625 C-47.20040956 17.85805275 -43.09923554 10.6600609 -37.1953125 3.03515625 C-27.07430451 -8.06137059 -11.9958873 -8.31332631 0 0 Z M-25.125 12.52734375 C-25.82739439 13.84220661 -26.50012726 15.17391984 -27.125 16.52734375 C-26.50753906 16.39457031 -25.89007812 16.26179687 -25.25390625 16.125 C-19.54872675 14.93533548 -13.92569316 14.08870115 -8.125 13.52734375 C-10.41885486 10.82439375 -11.98899214 10.0477815 -15.5 9.65234375 C-19.60013849 9.32566605 -21.93678495 9.72557901 -25.125 12.52734375 Z " fill="#FFFFFF" transform="translate(721.125,897.47265625)"/>
<path d="M0 0 C2.875 1.5625 2.875 1.5625 5 4 C6.08470601 7.7286769 6.50567248 9.89208564 4.875 13.46484375 C2.60282061 16.53701964 0.23358034 18.10401229 -3 20.125 C-6.35348982 22.23736981 -9.21732242 24.19993068 -12 27 C-12.66 27 -13.32 27 -14 27 C-10.0990539 31.78189039 -10.0990539 31.78189039 -5.5625 35.9375 C0.07620596 40.47597065 5.17059594 45.53536346 6 53 C4.54800266 57.05030837 3.59941709 58.60038861 0 61 C-4.32362389 61.57104467 -6.33562362 61.44291759 -10 59 C-12.9690035 56.22000468 -15.55610226 53.09932279 -18.1875 50.00390625 C-20.88788506 47.01835122 -23.88412891 44.54356823 -27 42 C-31.461098 43.40205937 -33.77539351 45.68824198 -37 49 C-37.66 49 -38.32 49 -39 49 C-39.2578125 49.57363281 -39.515625 50.14726562 -39.78125 50.73828125 C-41.1105164 53.20509293 -42.64404017 55.09168096 -44.5 57.1875 C-45.1084375 57.88230469 -45.716875 58.57710938 -46.34375 59.29296875 C-48.73307298 61.75554927 -49.83116872 61.98088702 -53.3125 62.375 C-57 62 -57 62 -59.9375 59.9375 C-62.54673278 56.22131998 -62.70429978 54.46056526 -62 50 C-57.68156784 41.55089359 -49.74101554 34.56816899 -43 28 C-43.69867187 27.61328125 -44.39734375 27.2265625 -45.1171875 26.828125 C-46.02726563 26.30734375 -46.93734375 25.7865625 -47.875 25.25 C-48.77992188 24.73953125 -49.68484375 24.2290625 -50.6171875 23.703125 C-53.12104354 21.91348363 -53.99558565 20.86653083 -55 18 C-55.32369432 14.11566819 -55.30567313 11.22794238 -53 8 C-49.74532893 5.67523495 -46.91350057 5.72862587 -43 6 C-40.1484375 7.20703125 -40.1484375 7.20703125 -37.375 8.8125 C-35.99441406 9.59560547 -35.99441406 9.59560547 -34.5859375 10.39453125 C-32.28331075 11.82410768 -30.1338495 13.33199088 -28 15 C-26.7315625 14.00419922 -26.7315625 14.00419922 -25.4375 12.98828125 C-7.23285315 -1.22822035 -7.23285315 -1.22822035 0 0 Z " fill="#FFFFFF" transform="translate(617,441)"/>
<path d="M0 0 C7.10532347 6.39237435 14.47621694 15.32176596 15.25 25.1875 C14.91031421 29.00896512 13.80432309 30.41139407 11 33 C4.53441196 35.4368241 -2.15600412 35.65696889 -9 36.125 C-10.14984375 36.21136719 -11.2996875 36.29773438 -12.484375 36.38671875 C-18.00199568 36.78719122 -23.4678624 37.11257257 -29 37 C-26.7491737 41.36681047 -24.96498061 44.4173702 -20.6875 47 C-11.09567105 49.60117395 -3.01174181 47.01085313 5.6875 42.75 C9.78190316 40.84799002 12.57094108 40.73455459 17 42 C19 44 19 44 19.375 46.875 C18.9039863 50.80011419 18.00142542 51.50125233 15 54 C11.79296875 55.6328125 11.79296875 55.6328125 8.1875 57.125 C7.00542969 57.62257813 5.82335938 58.12015625 4.60546875 58.6328125 C-5.17438007 62.34131422 -15.34407428 64.07900944 -25.4375 60.375 C-34.18697896 56.28041625 -38.91339797 50.63382547 -42.25 41.625 C-44.15716934 32.40701487 -43.114272 22.783648 -38.60546875 14.41015625 C-37.15095889 12.19709189 -35.62148546 10.09279724 -34 8 C-33.38125 7.113125 -32.7625 6.22625 -32.125 5.3125 C-23.00558883 -4.61156509 -11.67414159 -8.15028034 0 0 Z M-26 18.8125 C-27.13858659 20.90228563 -27.13858659 20.90228563 -27 23 C-17.93664124 23.10234659 -9.01824887 23.06996173 0 22 C-4.7324174 13.24024736 -4.7324174 13.24024736 -12.8125 8.25 C-18.66777589 9.62771197 -22.59248796 14.0206862 -26 18.8125 Z " fill="#FFFFFF" transform="translate(1298,893)"/>
<path d="M0 0 C3.21681192 2.53958836 4.73332582 4.59996054 5.5 8.625 C4.41677998 15.9367351 -3.10602128 21.1952065 -8.30078125 26.04296875 C-10.20641965 28.23773849 -11.0690673 30.26390845 -12 33 C-11.49210937 33.4846875 -10.98421875 33.969375 -10.4609375 34.46875 C2.24711925 46.84363672 2.24711925 46.84363672 2.6875 53.1875 C2 57 2 57 -0.0625 60 C-3.79836042 62.54356454 -5.55999051 62.77894903 -10 62 C-14.69623554 58.83722913 -18.71419679 54.62575842 -22 50 C-22 49.34 -22 48.68 -22 48 C-22.66 48 -23.32 48 -24 48 C-24 47.34 -24 46.68 -24 46 C-28.25476971 50.00757358 -31.4392822 54.37676134 -34.60546875 59.27148438 C-37.01203376 62.8813319 -39.3822053 65.58620737 -43 68 C-46.5625 68.5 -46.5625 68.5 -50 68 C-53.21647712 65.46067595 -54.78820547 63.43977491 -55.38671875 59.37109375 C-54.84298969 54.6313142 -52.59652212 51.84004992 -49.8125 48.0625 C-49.32974609 47.38509766 -48.84699219 46.70769531 -48.34960938 46.00976562 C-46.91210605 43.99726097 -45.45672108 41.99861935 -44 40 C-42.32925241 37.66955808 -40.66495398 35.33458812 -39 33 C-42.12119429 29.33598931 -45.64277301 27.45824484 -49.87890625 25.34375 C-52.27439113 23.82616842 -53.51693193 22.40535103 -55 20 C-55.58490372 16.07278932 -55.34594305 14.51891457 -53.125 11.1875 C-50.46436065 8.44860656 -49.64216173 8.06318935 -45.82421875 7.6875 C-41.19390991 8.06587049 -38.63818695 9.53019992 -34.8125 12 C-29.84443188 15.20056728 -29.84443188 15.20056728 -24 16 C-22.36323743 14.0399719 -22.36323743 14.0399719 -21 12 C-20.34 12 -19.68 12 -19 12 C-18.7525 11.41605469 -18.505 10.83210938 -18.25 10.23046875 C-16.81544436 7.67068353 -15.23295714 6.20476699 -13 4.3125 C-11.948125 3.40951172 -11.948125 3.40951172 -10.875 2.48828125 C-7.2633208 -0.37848912 -4.57707058 -0.39457505 0 0 Z " fill="#FFFFFF" transform="translate(1733,440)"/>
<path d="M0 0 C2.5475908 3.8213862 2.03098227 5.36027677 1.5390625 9.87109375 C1.46964447 10.54866226 1.40022644 11.22623077 1.32870483 11.92433167 C1.10484723 14.09667243 0.86603242 16.26700306 0.625 18.4375 C-0.60882243 29.80389551 -1.81660237 41.02646021 -0.375 52.4375 C0.04435876 56.169793 0.05981443 58.70429691 -2 62 C-5 64 -5 64 -8.0625 63.75 C-11 63 -11 63 -13 61 C-13.39764263 59.01178687 -13.73775349 57.01055661 -14 55 C-14.81984375 55.34933594 -15.6396875 55.69867187 -16.484375 56.05859375 C-17.56203125 56.51363281 -18.6396875 56.96867188 -19.75 57.4375 C-20.81734375 57.88996094 -21.8846875 58.34242188 -22.984375 58.80859375 C-30.48636324 61.77246216 -37.6485559 62.1065289 -45.15234375 58.9140625 C-52.55761422 55.25056717 -56.38747937 51.09446528 -59.3125 43.4375 C-62.10965934 34.43794388 -61.2619839 26.28045023 -57.03125 17.89453125 C-56.6909375 17.26933594 -56.350625 16.64414062 -56 16 C-55.54625 15.0925 -55.0925 14.185 -54.625 13.25 C-50.30372934 7.26670217 -45.10187749 4.51254629 -38 3 C-29.5964287 2.04130381 -20.7276736 3.69211094 -13 7 C-12.38125 5.329375 -12.38125 5.329375 -11.75 3.625 C-10.73208726 1.29090241 -10.14128315 0.12179582 -8.1875 -1.5625 C-4.95954574 -2.20809085 -2.95342659 -1.34830344 0 0 Z M-42.1875 19.1875 C-42.785625 20.115625 -43.38375 21.04375 -44 22 C-44.52335937 22.76054688 -45.04671875 23.52109375 -45.5859375 24.3046875 C-48.04423343 28.99038969 -47.64187242 33.84409003 -47 39 C-45.52846918 42.77260108 -43.3799012 44.74673253 -40 47 C-30.95827801 48.45114057 -24.40709245 46.12390266 -17 41 C-13.28115866 37.28115866 -13.94460121 31.56885095 -13.9375 26.5625 C-13.95336625 25.04160674 -13.97246169 23.5207267 -14 22 C-15.0725 21.360625 -16.145 20.72125 -17.25 20.0625 C-17.85328125 19.70285156 -18.4565625 19.34320312 -19.078125 18.97265625 C-25.71052873 15.6160129 -36.08134898 14.9970042 -42.1875 19.1875 Z " fill="#FFFFFF" transform="translate(1206,890)"/>
<path d="M0 0 C2.8125 1.4375 2.8125 1.4375 4.8125 4.4375 C5.05215047 6.90134903 5.18492 9.26290576 5.2265625 11.73046875 C5.24592865 12.43649734 5.2652948 13.14252594 5.2852478 13.86994934 C5.34495224 16.12151061 5.3913914 18.37312328 5.4375 20.625 C5.47568829 22.15301689 5.51474052 23.68101245 5.5546875 25.20898438 C5.65064596 28.95164935 5.73471011 32.6944151 5.8125 36.4375 C7.24013169 34.85596357 8.66708205 33.27381211 10.09375 31.69140625 C10.88845703 30.8104126 11.68316406 29.92941895 12.50195312 29.02172852 C14.46461198 26.82659496 16.39727727 24.61142403 18.3125 22.375 C19.47515208 21.05894244 20.64208053 19.74665454 21.8125 18.4375 C22.8953125 17.20193359 22.8953125 17.20193359 24 15.94140625 C29.83134307 9.62740134 29.83134307 9.62740134 34.6875 8.6875 C37.8125 9.4375 37.8125 9.4375 39.75 10.5 C41.51724955 13.72263152 41.31253065 15.80124773 40.8125 19.4375 C38.68708149 22.39750892 36.06442928 24.74364804 33.375 27.1875 C31.903744 28.5845422 30.43628473 29.98559375 28.97265625 31.390625 C28.25867676 32.07318359 27.54469727 32.75574219 26.80908203 33.45898438 C22.7626352 37.46881625 19.26463067 41.91137313 15.8125 46.4375 C19.45145249 52.74880823 23.14631196 59.00569274 27 65.1875 C35.03777473 78.28609585 35.03777473 78.28609585 34.25 82.3125 C32.8125 84.4375 32.8125 84.4375 29.8125 86.4375 C26.875 86.375 26.875 86.375 23.8125 85.4375 C20.37268164 81.66706515 17.874179 77.38458027 15.3125 73 C12.60042419 68.38576863 9.82290918 63.86416987 6.8125 59.4375 C5.21212722 61.03787278 5.64735812 62.77433621 5.6015625 64.98828125 C5.57320312 65.91447266 5.54484375 66.84066406 5.515625 67.79492188 C5.46385634 69.75307135 5.41949325 71.71143167 5.3828125 73.66992188 C5.351875 74.59998047 5.3209375 75.53003906 5.2890625 76.48828125 C5.26924316 77.34075439 5.24942383 78.19322754 5.22900391 79.0715332 C4.72786509 81.9182719 3.74004373 83.31340728 1.8125 85.4375 C-0.0625 86.375 -0.0625 86.375 -2.1875 86.4375 C-6.81826923 84.17596154 -6.81826923 84.17596154 -8.1875 81.4375 C-8.30626743 78.98747125 -8.36578511 76.56493945 -8.38037109 74.11376953 C-8.39263733 72.98180145 -8.39263733 72.98180145 -8.40515137 71.82696533 C-8.43000428 69.32475583 -8.44651971 66.822603 -8.4609375 64.3203125 C-8.46626118 63.46659939 -8.47158485 62.61288628 -8.47706985 61.73330307 C-8.5037991 57.21592862 -8.52317599 52.69858181 -8.53759766 48.18115234 C-8.5542587 43.5111823 -8.59904872 38.84191618 -8.6499691 34.1722126 C-8.68359162 30.58457612 -8.69516945 26.9971079 -8.70082474 23.40932846 C-8.70754951 21.68768804 -8.72280341 19.96605917 -8.74671555 18.24457169 C-8.77826917 15.83580007 -8.77841978 13.42894279 -8.77099609 11.02001953 C-8.78740143 10.30818512 -8.80380676 9.59635071 -8.82070923 8.86294556 C-8.77384031 5.15042797 -8.41813382 3.68508799 -5.85025024 0.92843628 C-3.1875 -0.5625 -3.1875 -0.5625 0 0 Z " fill="#FFFFFF" transform="translate(1100.1875,865.5625)"/>
<path d="M0 0 C8.49413173 4.8488062 13.63868794 10.56155922 16.59765625 19.8359375 C18.71869873 28.49791938 17.40309863 37.09504092 13.48046875 45.08984375 C8.91436327 52.33055455 3.26498623 57.35138451 -5.1875 59.375 C-14.1016136 60.74127536 -23.3865811 57.68980978 -30.625 52.5 C-38.29542241 46.10267674 -41.37863425 39.73037376 -42.625 29.9375 C-41.5050216 20.81767592 -37.78743391 12.80539432 -31.1875 6.375 C-21.32431484 -1.0259266 -12.00234358 -5.50305081 0 0 Z M-24.6875 22.125 C-26.76040941 26.61630372 -27.12262883 30.51233009 -26.1875 35.375 C-23.26527095 39.41455192 -19.86283228 41.69893748 -15.1875 43.375 C-10.04116986 44.12791968 -6.47804857 44.316025 -2.1875 41.1875 C0.94960433 36.77594704 2.09259197 33.22153132 2.0625 27.8125 C2.06765625 26.88308594 2.0728125 25.95367188 2.078125 24.99609375 C1.70870062 21.35074436 0.8773637 19.28636983 -1.921875 16.890625 C-5.01034433 14.95135356 -7.61155773 13.50698677 -11.1875 12.6875 C-16.93991101 14.00576086 -20.8018133 17.85074463 -24.6875 22.125 Z " fill="#FFFFFF" transform="translate(840.1875,893.625)"/>
<path d="M0 0 C3.45329928 1.91432895 6.07454096 4.43594249 8.796875 7.24609375 C9.786875 7.86484375 10.776875 8.48359375 11.796875 9.12109375 C15.98434671 12.08721955 18.1826201 15.40332904 19.796875 20.24609375 C20.37742973 25.45449908 20.77830436 30.56716273 17.859375 35.12109375 C14.58481167 39.02071618 10.27580828 41.00662711 5.796875 43.24609375 C5.04148437 43.77976563 4.28609375 44.3134375 3.5078125 44.86328125 C-0.03107594 46.66842031 -3.19898442 46.68635032 -7.078125 46.62109375 C-8.10099609 46.63849609 -8.10099609 46.63849609 -9.14453125 46.65625 C-15.41881412 46.62039696 -20.06960664 45.04018874 -24.953125 40.93359375 C-29.45914492 35.55140329 -31.39989204 30.23711081 -31.203125 23.24609375 C-30.550486 20.07459181 -29.47702373 17.21676215 -28.203125 14.24609375 C-27.78353516 13.19035156 -27.78353516 13.19035156 -27.35546875 12.11328125 C-25.07297104 6.91590552 -21.92279787 3.41079319 -17.203125 0.24609375 C-11.86455462 -1.53342971 -5.37245246 -1.83844561 0 0 Z " fill="#FFFFFF" transform="translate(257.203125,137.75390625)"/>
<path d="M0 0 C2.8125 0.9375 2.8125 0.9375 4.8125 2.9375 C5.2265625 4.890625 5.2265625 4.890625 5.4375 7.1875 C5.51097656 7.98542969 5.58445312 8.78335938 5.66015625 9.60546875 C5.84198075 12.3887823 5.88399048 15.14937146 5.8125 17.9375 C6.43898438 17.97488281 7.06546875 18.01226563 7.7109375 18.05078125 C8.52820312 18.11652344 9.34546875 18.18226563 10.1875 18.25 C10.99960938 18.30800781 11.81171875 18.36601563 12.6484375 18.42578125 C14.8125 18.9375 14.8125 18.9375 16.8125 21.9375 C17.25 24.9375 17.25 24.9375 16.8125 27.9375 C13.83973853 30.64001043 12.02475709 30.92706113 8 31.125 C6.948125 31.063125 5.89625 31.00125 4.8125 30.9375 C4.97258545 31.58009766 5.1326709 32.22269531 5.29760742 32.88476562 C5.96891593 36.86487067 6.01410052 40.75122037 6.05078125 44.78125 C6.058853 45.62796265 6.06692474 46.47467529 6.07524109 47.3470459 C6.08903032 49.1322223 6.0997754 50.9174245 6.10766602 52.70263672 C6.1192225 54.52595762 6.1397318 56.34924373 6.16918945 58.17236328 C6.21182741 60.81305826 6.22802523 63.45275376 6.23828125 66.09375 C6.25578934 66.90533569 6.27329742 67.71692139 6.29133606 68.55310059 C6.27618584 72.51103598 6.08029826 74.49659655 3.97729492 77.95898438 C1.8125 79.9375 1.8125 79.9375 -1.25 80.4375 C-4.1875 79.9375 -4.1875 79.9375 -6 78.625 C-8.02190323 75.7517691 -8.32125421 73.14604978 -8.39282227 69.74145508 C-8.41276749 68.90081009 -8.43271271 68.0601651 -8.45326233 67.19404602 C-8.46997482 66.29083115 -8.48668732 65.38761627 -8.50390625 64.45703125 C-8.52468735 63.52904221 -8.54546844 62.60105316 -8.56687927 61.64494324 C-8.63227323 58.6800376 -8.69121262 55.71504328 -8.75 52.75 C-8.79319487 50.7402252 -8.83680947 48.73045937 -8.88085938 46.72070312 C-8.98794427 41.79305968 -9.08924045 36.86532701 -9.1875 31.9375 C-10.21810547 31.79054688 -10.21810547 31.79054688 -11.26953125 31.640625 C-12.17058594 31.49109375 -13.07164063 31.3415625 -14 31.1875 C-14.89332031 31.04828125 -15.78664063 30.9090625 -16.70703125 30.765625 C-19.73265091 29.75549686 -20.6397818 28.68727934 -22.1875 25.9375 C-22.11349682 22.90336953 -21.62112384 21.46146215 -19.6875 19.125 C-15.92262805 17.33668583 -12.28623595 17.70103446 -8.1875 17.9375 C-8.27451172 16.61685547 -8.27451172 16.61685547 -8.36328125 15.26953125 C-8.73109857 5.80086244 -8.73109857 5.80086244 -6.0625 1.5625 C-3.1875 -0.0625 -3.1875 -0.0625 0 0 Z " fill="#FFFFFF" transform="translate(1234.1875,877.0625)"/>
<path d="M0 0 C10.4428094 9.18613233 10.4428094 9.18613233 11.3359375 16.90234375 C11.41577673 23.1058516 11.41481243 27.2272298 7 32 C0.80935405 37.58668049 -5.16772924 37.42053948 -13.09375 37.28125 C-19.27054423 36.83652082 -21.93693487 35.12037249 -26.25 30.6875 C-30.37664486 24.35015254 -31.61029472 20.18963313 -30.62890625 12.6484375 C-29.21681045 6.70184772 -25.9479871 3.41546914 -20.9375 0.125 C-14.10079592 -3.96348442 -6.8032843 -4.49016764 0 0 Z " fill="#FFFFFF" transform="translate(888,458)"/>
<path d="M0 0 C2.5994189 3.89912834 2.26918011 7.1596655 2.23046875 11.6796875 C2.23046371 12.55212097 2.23045868 13.42455444 2.23045349 14.32342529 C2.22694033 17.17409726 2.20802501 20.02440333 2.1875 22.875 C2.1793034 24.83251862 2.17132911 26.79003818 2.16357422 28.74755859 C2.10534061 40.04242299 1.96473817 51.33489308 1.625 62.625 C1.5943042 63.76437012 1.5636084 64.90374023 1.53198242 66.07763672 C0.9453236 82.0546764 0.9453236 82.0546764 -3 86 C-6.04017602 86.7930894 -8.1987149 87.22257919 -11.25 86.375 C-13.67778808 84.46745222 -14.09190138 82.96570162 -15 80 C-15.16891833 77.12802359 -15.22793973 74.36842751 -15.1796875 71.5 C-15.17210419 70.63834229 -15.16452087 69.77668457 -15.15670776 68.88891602 C-15.02355587 57.51766968 -14.65384048 46.14968095 -14.25537109 34.78515625 C-14.12330425 30.95076598 -14.00497581 27.11608811 -13.88671875 23.28125 C-13.80292086 20.83330452 -13.71831615 18.38538649 -13.6328125 15.9375 C-13.59938751 14.79595459 -13.56596252 13.65440918 -13.53152466 12.47827148 C-13.49163422 11.42196533 -13.45174377 10.36565918 -13.41064453 9.27734375 C-13.37955597 8.35171631 -13.34846741 7.42608887 -13.31643677 6.47241211 C-12.98297102 3.86694763 -12.40328402 2.21022514 -11 0 C-6.85516193 -2.5329566 -4.31243424 -2.01246931 0 0 Z " fill="#FFFFFF" transform="translate(785,868)"/>
<path d="M0 0 C1.93084565 1.58605179 2.88290172 2.76580344 4 5 C4.107566 7.28105593 4.14892585 9.56531886 4.16113281 11.84887695 C4.16609772 12.55314819 4.17106262 13.25741943 4.17617798 13.98303223 C4.19080911 16.31812511 4.19760368 18.65315002 4.203125 20.98828125 C4.20887634 22.6101227 4.21463408 24.23196413 4.22039795 25.85380554 C4.2309111 29.2576021 4.23675148 32.66137503 4.24023438 36.06518555 C4.24571517 40.4232318 4.26973282 44.780965 4.29820633 49.13891315 C4.3168475 52.4906861 4.32203913 55.84238393 4.32357025 59.19420433 C4.32659475 60.80054623 4.33461646 62.40688686 4.34775543 64.01317787 C4.36484483 66.26333905 4.36292884 68.51273939 4.35644531 70.76293945 C4.36009094 72.04264114 4.36373657 73.32234283 4.36749268 74.64082336 C3.97287771 78.24791944 3.17921314 80.13079399 1 83 C-1.88861709 84.44430855 -3.79647701 84.37688506 -7 84 C-10.29733521 81.41301309 -11.82465531 79.9168743 -12.62145996 75.75039673 C-12.61940552 74.52130585 -12.61735107 73.29221497 -12.61523438 72.02587891 C-12.62078339 71.34388931 -12.6263324 70.66189972 -12.63204956 69.95924377 C-12.64381901 67.71429202 -12.61959736 65.47137182 -12.59375 63.2265625 C-12.59203766 61.65864148 -12.59210583 60.09071759 -12.59387207 58.52279663 C-12.59222023 55.23920229 -12.57355246 51.95629181 -12.54199219 48.67285156 C-12.50238007 44.47752234 -12.49794015 40.28309092 -12.50545502 36.08761024 C-12.50853508 32.84978101 -12.49636647 29.6121511 -12.47932434 26.37437057 C-12.4723238 24.82832466 -12.46916621 23.28225614 -12.47001648 21.73619461 C-12.46820492 19.5680238 -12.4467082 17.40089851 -12.41992188 15.23291016 C-12.41150269 14.00222809 -12.4030835 12.77154602 -12.39440918 11.50357056 C-11.88304448 6.9610741 -10.84521519 2.47617215 -7.125 -0.5 C-4.36836156 -1.14862081 -2.68244084 -0.89414695 0 0 Z " fill="#FFFFFF" transform="translate(757,868)"/>
<path d="M0 0 C4.21284962 3.95651221 6.88017222 8.21485191 7.06640625 14.09765625 C6.69351148 20.6854638 4.39894841 25.92970309 -0.53515625 30.38671875 C-5.33818754 33.62280366 -10.38185791 33.8491543 -16 33 C-21.68269351 31.31590541 -26.42892116 28.83145961 -30 24 C-32.40425723 18.99844298 -33.6110009 14.6688212 -32 9.25 C-29.53573348 3.2894237 -25.9321762 -1.18221631 -20 -4 C-12.85356162 -6.3177638 -5.80007401 -4.45615442 0 0 Z " fill="#FFFFFF" transform="translate(1104,459)"/>
<path d="M0 0 C5.46911385 4.21743619 9.40159262 7.77054028 11.1796875 14.62890625 C11.38016502 20.44275442 9.5672387 23.83738539 5.7421875 28.12890625 C1.68819961 31.15682276 -2.7446655 31.62232649 -7.6953125 31.25390625 C-15.29490966 29.28919891 -20.22093089 23.27477637 -24.1953125 16.81640625 C-25.13510828 11.99995286 -25.00200837 7.50550923 -22.49609375 3.1875 C-16.2085003 -4.7173747 -8.34981607 -5.40922867 0 0 Z " fill="#FFFFFF" transform="translate(1286.6953125,716.74609375)"/>
<path d="M0 0 C2.91950201 3.05643517 3.3696161 5.18173534 3.328125 9.34765625 C3.32377441 10.41556396 3.31942383 11.48347168 3.31494141 12.58374023 C3.29351074 13.73173096 3.27208008 14.87972168 3.25 16.0625 C3.23138916 17.83765991 3.23138916 17.83765991 3.21240234 19.64868164 C3.16299716 23.4331683 3.0854941 27.21616556 3 31 C2.97389648 32.2694043 2.94779297 33.53880859 2.92089844 34.84667969 C2.83826545 38.54426841 2.73674254 42.24068442 2.625 45.9375 C2.57907715 47.65948608 2.57907715 47.65948608 2.53222656 49.41625977 C2.47373535 51.01812134 2.47373535 51.01812134 2.4140625 52.65234375 C2.3826416 53.59070068 2.3512207 54.52905762 2.31884766 55.49584961 C1.98599596 58.10998429 1.40937508 59.78388134 0 62 C-2.87470493 63.43735246 -4.81894588 63.38172649 -8 63 C-10.38702699 60.88748512 -11.81797298 59.18041926 -12.31338501 55.96774292 C-12.38384134 53.4750226 -12.31888542 51.01858396 -12.20703125 48.52734375 C-12.18154709 47.60844864 -12.15606293 46.68955353 -12.12980652 45.74281311 C-12.04331361 42.80673426 -11.92795514 39.87256743 -11.8125 36.9375 C-11.75273782 34.99028937 -11.69477692 33.04302256 -11.63867188 31.09570312 C-11.47512817 25.7278732 -11.25114171 20.36437026 -11 15 C-10.94376465 13.69949707 -10.8875293 12.39899414 -10.82958984 11.05908203 C-10.76594238 9.98899902 -10.70229492 8.91891602 -10.63671875 7.81640625 C-10.58604248 6.9354126 -10.53536621 6.05441895 -10.4831543 5.14672852 C-9.90052485 2.55801667 -9.05417638 1.63467263 -7 0 C-4.24438552 -1.37780724 -2.90228766 -0.92023755 0 0 Z " fill="#FFFFFF" transform="translate(940,890)"/>
<path d="M0 0 C2.77978024 4.65646692 2.30585594 9.9066122 2.30078125 15.15625 C2.30506638 16.13613892 2.3093515 17.11602783 2.31376648 18.12561035 C2.31949854 20.19327015 2.32001833 22.2609501 2.31567383 24.32861328 C2.31251105 27.48895656 2.33599712 30.64836592 2.36132812 33.80859375 C2.36360097 35.82031132 2.36430468 37.8320314 2.36328125 39.84375 C2.372491 40.78657837 2.38170074 41.72940674 2.39118958 42.70080566 C2.35684977 47.57666904 2.28834913 51.10079521 -1 55 C-4.07979343 56.29675513 -5.55286212 56.13210892 -8.75 55.1875 C-13.29228643 50.77138819 -12.05184855 42.28793099 -12.16827393 36.18617249 C-12.21592189 32.74331481 -12.23260481 29.30082612 -12.24023438 25.85766602 C-12.25004099 23.17629109 -12.28118958 20.49565227 -12.3125 17.81445312 C-12.31902251 16.09896283 -12.32427592 14.38346713 -12.328125 12.66796875 C-12.3404718 11.87206833 -12.3528186 11.07616791 -12.36553955 10.25614929 C-12.34729768 5.70856624 -12.01513778 2.65499346 -9 -1 C-5.15510125 -2.28163292 -3.62830387 -1.69835501 0 0 Z " fill="#FFFFFF" transform="translate(1335,869)"/>
<path d="M0 0 C4.08304026 0.53548069 4.56491559 0.78060612 7.125 3.6875 C11.44875997 9.46404331 12.58888115 14.34534912 11.8125 21.5 C10.57775021 26.53813965 8.57601064 30.84718085 4.8125 34.5 C2.25 35.5 2.25 35.5 -0.1875 35.5 C-2.0625 34.5 -2.0625 34.5 -3.1875 32.5 C-2.85416667 26.16666667 -2.85416667 26.16666667 -0.1875 23.5 C0.31167209 21.40152357 0.31167209 21.40152357 0.5 19.0625 C0.58636719 18.28003906 0.67273438 17.49757813 0.76171875 16.69140625 C0.94023817 14.31967994 0.94023817 14.31967994 -0.1875 11.5 C-1.81082967 10.11423077 -3.47474465 8.77358732 -5.1875 7.5 C-4.16785028 0.65378044 -4.16785028 0.65378044 0 0 Z " fill="#FFFFFF" transform="translate(869.1875,935.5)"/>
<path d="M0 0 C2.57789934 1.0854313 3.78847614 1.69954041 5.375 4 C6.21768567 7.04663282 6.58254168 9.16983328 5.8125 12.25 C3.63281989 14.90352362 1.71562802 15.41047741 -1.625 16 C-4.4375 15.125 -4.4375 15.125 -6.625 13 C-7.693012 10.26211287 -8.01004957 7.91618428 -7.625 5 C-5.32586936 1.68654702 -4.15095021 0 0 0 Z " fill="#FFFFFF" transform="translate(1331.625,933)"/>
<path d="M0 0 C1.42041821 2.84083641 1.31452272 4.85477278 1 8 C-1.09110663 11.05623277 -2.29306849 11.86463014 -5.9375 12.5625 C-10.08958249 11.7998726 -11.55795207 10.40406682 -14 7 C-14.125 3.875 -14.125 3.875 -13 1 C-8.6705087 -3.19829459 -5.20734111 -1.82256939 0 0 Z " fill="#FFFFFF" transform="translate(943,869)"/>
</svg>
